<?xml version="1.0" standalone="no"?>
<!DOCTYPE svg PUBLIC "-//W3C//DTD SVG 20010904//EN"
 "http://www.w3.org/TR/2001/REC-SVG-20010904/DTD/svg10.dtd">
<svg version="1.0" xmlns="http://www.w3.org/2000/svg"
 width="900.000000pt" height="900.000000pt" viewBox="0 0 900.000000 900.000000"
 preserveAspectRatio="xMidYMid meet">
<metadata>
Created by potrace 1.14, written by Peter Selinger 2001-2017
</metadata>
<g transform="translate(0.000000,900.000000) scale(0.100000,-0.100000)"
fill="#000000" stroke="none">
<path d="M5545 7879 c-688 -235 -1467 -240 -2166 -13 -252 82 -279 78 -334
-44 -269 -597 -712 -1117 -1260 -1478 -142 -94 -300 -182 -435 -245 -141 -64
-175 -84 -186 -106 -9 -19 0 -56 52 -210 185 -556 229 -1112 133 -1681 -37
-221 -82 -387 -188 -686 -12 -33 -21 -69 -21 -81 0 -36 50 -72 196 -144 722
-354 1263 -894 1618 -1616 52 -105 76 -142 112 -174 41 -36 53 -41 95 -41 27
0 77 11 114 25 89 33 318 98 438 124 619 134 1306 88 1896 -125 68 -25 109
-34 141 -32 43 3 45 5 46 33 1 57 136 332 262 534 293 470 707 876 1174 1152
171 102 443 232 487 233 33 1 36 4 39 34 2 21 -14 82 -42 161 -93 266 -147
494 -183 766 -24 192 -24 643 0 829 36 268 102 545 181 756 20 52 36 103 36
113 0 30 -67 78 -174 128 -724 330 -1328 927 -1678 1656 -39 82 -80 156 -92
165 -35 29 -107 20 -261 -33z m-2320 -284 c104 -255 869 -2131 1015 -2488
l121 -298 -29 -27 c-16 -15 -31 -34 -34 -42 -3 -11 -35 -1 -154 47 -329 134
-2290 934 -2598 1060 -182 74 -337 138 -345 143 -12 6 0 15 49 36 756 323
1387 916 1748 1642 32 64 68 142 81 171 l23 55 25 -60 c13 -32 57 -140 98
-239z m2634 175 c124 -273 318 -574 529 -819 102 -120 308 -317 443 -425 224
-179 401 -293 634 -407 215 -106 229 -113 232 -124 1 -5 -358 -157 -800 -337
-441 -180 -1134 -463 -1541 -628 -406 -166 -741 -298 -745 -293 -3 4 -19 22
-34 39 l-28 31 299 739 c164 406 444 1100 622 1541 244 605 327 800 335 790 6
-6 31 -55 54 -107z m-1345 -2974 c43 -18 84 -71 91 -121 5 -31 1 -51 -17 -84
-30 -58 -65 -83 -125 -88 -89 -7 -163 61 -163 152 0 110 111 184 214 141z
m-180 -269 l36 -34 -161 -394 c-88 -217 -317 -779 -509 -1249 -528 -1295 -588
-1441 -594 -1448 -12 -12 -69 55 -93 108 -139 313 -373 666 -606 916 -323 348
-676 608 -1095 805 -67 32 -122 62 -122 67 0 4 510 214 1133 465 622 252 1319
533 1547 626 228 93 418 170 421 170 4 1 23 -14 43 -32z m1089 -295 c447 -181
1135 -459 1529 -618 394 -159 714 -292 710 -295 -4 -4 -55 -28 -113 -53 -615
-272 -1180 -780 -1549 -1392 -49 -81 -173 -323 -204 -398 -9 -22 -18 -37 -20
-35 -2 2 -203 497 -446 1099 -243 602 -520 1289 -617 1527 l-175 432 34 30
c18 17 34 31 36 31 2 0 369 -148 815 -328z"/>
<path d="M4399 4737 c-67 -45 -61 -134 13 -170 43 -21 77 -15 113 20 49 50 27
138 -42 164 -36 13 -46 12 -84 -14z"/>
</g>
</svg>
